# xmcd CD database file
#
# Track frame offsets:
#	150
#	13986
#	31635
#	38346
#	49780
#	66645
#	79862
#	95548
#	108697
#	123734
#	136783
#	154189
#	163641
#	179666
#	197289
#	215561
#	232644
#	247538
#	261629
#	276073
#	289386
#	304927
#	319212
#	337396
#	357758
#
# Disc length: 4786 seconds
#
# Revision: 7
# Processed by: cddbd v1.4PL0 Copyright (c) Steve Scherf et al.
# Submitted via: CDex 1.40Beta8
#
DISCID=7412b019
DTITLE=Raul Produções - Só As Bruta - Vol I
DYEAR=2002
DGENRE=Country
TTITLE0=Tonico e Tinoco - Saco de Ouro
TTITLE1=Renato Teixeira - Amanheceu Peguei a Viola
TTITLE2=Almir Sater - Cabelo Loiro
TTITLE3=Milionário and José Rico - 60 Dias Apaixonado
TTITLE4=Chitãozinho and Xororó - Fogão de Lenha
TTITLE5=Sérgio Reis and Almir Sater - Rei do Gado
TTITLE6=Liu and Léo - Ipê e o Prisioneiro
TTITLE7=Tonico and Tinoco - O Menino da Porteira
TTITLE8=João Mineiro and Marciano - Boate Azul
TTITLE9=Sérgio Reis - João de Barro
TTITLE10=Felipe and Falcão - O Milagre da Santa
TTITLE11=Milionário and José Rico - Estrada da Vida
TTITLE12=Sérgio Reis - Tristeza do Jeca
TTITLE13=Milionário and José Rico - O Último Julgamento
TTITLE14=Sérgio Reis - Filho Adotivo
TTITLE15=Sérgio Reis and Almir Sater - Boiadeiro Errante
TTITLE16=Teixeirinha - Coração de Luto
TTITLE17=Tonico and Tinoco - Chico Mineiro
TTITLE18=Tonico and Tinoco - Couro de Boi
TTITLE19=Milionário and José Rico - Dama de Vermelho
TTITLE20=Felipe and Falcão - O Carro e a Faculdade
TTITLE21=Tonico and Tinoco - Adeus Morena, Adeus
TTITLE22=Almir Sater - Moreninha Linda
TTITLE23=Gino and Geno - Nossa Senhora Aparecida
TTITLE24=Jorge Moisés - Locução
EXTD=YEAR: 2002 ID3G: 2
EXTT0=
EXTT1=
EXTT2=
EXTT3=
EXTT4=
EXTT5=
EXTT6=
EXTT7=
EXTT8=
EXTT9=
EXTT10=
EXTT11=
EXTT12=
EXTT13=
EXTT14=
EXTT15=
EXTT16=
EXTT17=
EXTT18=
EXTT19=
EXTT20=
EXTT21=
EXTT22=
EXTT23=
EXTT24=
PLAYORDER=
